HIERARCHY
ROOT Hips
{
  OFFSET 18.8922 38.3337 8.65331
  CHANNELS 6 Xposition Yposition Zposition Zrotation Xrotation Yrotation
  JOINT LeftHip
  {
    OFFSET 3.43 2.23997e-012 1.59872e-014
    CHANNELS 6 Xposition Yposition Zposition Zrotation Xrotation Yrotation
    JOINT LeftKnee
    {
      OFFSET 1.42109e-014 -18.47 -6.21725e-015
      CHANNELS 6 Xposition Yposition Zposition Zrotation Xrotation Yrotation
      JOINT LeftAnkle
      {
        OFFSET -3.55271e-015 -17.95 -1.77636e-015
        CHANNELS 6 Xposition Yposition Zposition Zrotation Xrotation Yrotation
        End Site
        {
          OFFSET 0 -3.12 0
        }
      }
    }
  }
  JOINT RightHip
  {
    OFFSET -3.43 2.60943e-013 3.19744e-014
    CHANNELS 6 Xposition Yposition Zposition Zrotation Xrotation Yrotation
    JOINT RightKnee
    {
      OFFSET 7.10543e-015 -18.47 5.32907e-015
      CHANNELS 6 Xposition Yposition Zposition Zrotation Xrotation Yrotation
      JOINT RightAnkle
      {
        OFFSET 3.55271e-015 -17.95 0
        CHANNELS 6 Xposition Yposition Zposition Zrotation Xrotation Yrotation
        End Site
        {
          OFFSET 0 -3.12 0
        }
      }
    }
  }
  JOINT Chest
  {
    OFFSET -3.55271e-015 4.57 7.99361e-015
    CHANNELS 6 Xposition Yposition Zposition Zrotation Xrotation Yrotation
    JOINT Chest2
    {
      OFFSET -3.55271e-015 6.57 8.88178e-016
      CHANNELS 6 Xposition Yposition Zposition Zrotation Xrotation Yrotation
      JOINT LeftCollar
      {
        OFFSET 1.06 4.19 1.76
        CHANNELS 6 Xposition Yposition Zposition Zrotation Xrotation Yrotation
        JOINT LeftShoulder
        {
          OFFSET 5.81 -4.07661e-012 4.44089e-015
          CHANNELS 6 Xposition Yposition Zposition Zrotation Xrotation Yrotation
          JOINT LeftElbow
          {
            OFFSET -3.81207e-013 -12.08 9.04958e-013
            CHANNELS 6 Xposition Yposition Zposition Zrotation Xrotation Yrotation
            JOINT LeftWrist
            {
              OFFSET -7.10543e-015 -9.82 0
              CHANNELS 6 Xposition Yposition Zposition Zrotation Xrotation Yrotation
              End Site
              {
                OFFSET 0 -7.37 0
              }
            }
          }
        }
      }
      JOINT RightCollar
      {
        OFFSET -1.06 4.19 1.76
        CHANNELS 6 Xposition Yposition Zposition Zrotation Xrotation Yrotation
        JOINT RightShoulder
        {
          OFFSET -6.06 -2.27952e-012 8.88178e-016
          CHANNELS 6 Xposition Yposition Zposition Zrotation Xrotation Yrotation
          JOINT RightElbow
          {
            OFFSET 4.34351e-013 -11.08 -3.41318e-013
            CHANNELS 6 Xposition Yposition Zposition Zrotation Xrotation Yrotation
            JOINT RightWrist
            {
              OFFSET 1.42109e-014 -9.82 -8.88178e-016
              CHANNELS 6 Xposition Yposition Zposition Zrotation Xrotation Yrotation
              End Site
              {
                OFFSET 0 -7.14001 0
              }
            }
          }
        }
      }
      JOINT Neck
      {
        OFFSET 3.55271e-015 4.05 4.44089e-016
        CHANNELS 6 Xposition Yposition Zposition Zrotation Xrotation Yrotation
        JOINT Head
        {
          OFFSET -3.55271e-015 5.19 4.44089e-016
          CHANNELS 6 Xposition Yposition Zposition Zrotation Xrotation Yrotation
          End Site
          {
            OFFSET 0 4.14001 0
          }
        }
      }
    }
  }
}
MOTION
Frames:	6
Frame Time:	0.0333333
30.4446 53.8845 -11.4787 -3.68815 -0.119835 -19.5085 3.43 -5.74528e-015 1.59872e-014 -5.9348 -62.2328 0.476896 1.42109e-014 -18.47 -6.21725e-015 162.182 72.2474 -158.685 -3.55271e-015 -17.95 -1.77636e-015 -2.80859 10.0065 0.246394 -3.43 6.83079e-013 3.19744e-014 -0.712096 -63.5277 -6.48524 7.10543e-015 -18.47 5.32907e-015 -159.986 79.0709 158.234 3.55271e-015 -17.95 0 6.32642 9.92096 -0.548285 -3.55271e-015 4.57 7.99361e-015 1.62163 12.4121 1.18434 -3.55271e-015 6.57 8.88178e-016 3.08652 24.8514 2.07384 1.06 4.19 1.76 -16.0984 0.850749 2.20413 5.81 -4.66592e-012 4.44089e-015 66.2824 -15.3339 -38.2009 3.77579e-013 -12.08 -8.40729e-013 -26.0116 -64.6719 -40.4676 -7.10543e-015 -9.82 0 9.37202 -12.9949 1.06797 -1.06 4.19 1.76 20.163 2.08363 4.59174 -6.06 -4.87894e-012 8.88178e-016 -63.6244 5.47887 20.6801 1.1609e-013 -11.08 4.71516e-013 1.40507 -66.2907 -2.36045 1.42109e-014 -9.82 -8.88178e-016 -10.7667 -10.9327 -1.03381 3.55271e-015 4.05 4.44089e-016 -13.699 -55.5756 -15.1718 -3.55271e-015 5.19 4.44089e-016 1.82458 3.30105 -9.81693 
29.9727 52.9667 -10.5923 -3.2144 1.36306 -19.6225 3.43 -1.36331e-013 1.59872e-014 -3.53687 -52.3356 0.719189 1.42109e-014 -18.47 -6.21725e-015 81.3441 86.0354 -74.9221 -3.55271e-015 -17.95 -1.77636e-015 -4.5183 10.1148 0.401211 -3.43 6.62899e-013 3.19744e-014 0.276178 -55.2415 -3.19041 7.10543e-015 -18.47 5.32907e-015 -22.1595 84.1509 21.2812 3.55271e-015 -17.95 0 9.16968 11.2378 -0.914651 -3.55271e-015 4.57 7.99361e-015 1.78149 11.1098 0.634124 -3.55271e-015 6.57 8.88178e-016 3.53731 22.2337 0.935636 1.06 4.19 1.76 -20.3554 0.407084 5.03889 5.81 -4.66734e-012 4.44089e-015 68.3547 6.82465 -44.5315 4.48773e-013 -12.08 -9.77813e-013 -65.4827 -84.2309 -78.5579 -7.10543e-015 -9.82 0 14.6845 -12.5967 1.63341 -1.06 4.19 1.76 21.8604 2.20048 4.54089 -6.06 -4.879e-012 8.88178e-016 -68.7879 27.6599 30.1996 1.44323e-013 -11.08 4.31929e-013 -13.8241 -84.418 -19.2509 1.42109e-014 -9.82 -8.88178e-016 -11.0605 -9.21519 -0.893667 3.55271e-015 4.05 4.44089e-016 -14.7452 -56.7961 -14.7219 -3.55271e-015 5.19 4.44089e-016 2.40356 7.87945 -9.1223 
29.3088 51.1713 -9.45842 -2.96341 2.58093 -19.5173 3.43 1.17962e-013 1.59872e-014 -0.632297 -41.1737 1.20355 1.42109e-014 -18.47 -6.21725e-015 6.02148 69.7569 -2.3849 -3.55271e-015 -17.95 -1.77636e-015 -6.6249 11.3869 0.661385 -3.43 6.38155e-013 3.19744e-014 0.468734 -45.495 -1.59079 7.10543e-015 -18.47 5.32907e-015 -2.32113 67.7322 2.99896 3.55271e-015 -17.95 0 13.5213 16.6438 -1.98381 -3.55271e-015 4.57 7.99361e-015 1.94845 10.0185 0.499848 -3.55271e-015 6.57 8.88178e-016 3.89821 20.048 0.662096 1.06 4.19 1.76 -25.1221 -0.211903 7.60827 5.81 -4.66867e-012 4.44089e-015 71.9516 28.2994 -47.3898 5.09288e-013 -12.08 -1.10392e-012 -177.061 -79.7303 170.813 -7.10543e-015 -9.82 0 17.3573 -11.9516 1.80756 -1.06 4.19 1.76 23.8745 2.31743 4.38027 -6.06 -4.87858e-012 8.88178e-016 -76.373 50.2427 39.8313 1.63922e-013 -11.08 3.91389e-013 -150.904 -83.002 -156.324 1.42109e-014 -9.82 -8.88178e-016 -14.2925 -9.39368 -1.1816 3.55271e-015 4.05 4.44089e-016 -16.665 -58.5585 -15.5174 -3.55271e-015 5.19 4.44089e-016 2.30006 11.2779 -8.88273 
28.5199 48.6848 -8.26992 -1.89916 3.31274 -19.3697 3.43 9.84175e-014 1.59872e-014 0.467516 -29.8195 0.558029 1.42109e-014 -18.47 -6.21725e-015 0.801744 49.3929 -4.09245 -3.55271e-015 -17.95 -1.77636e-015 -8.16558 13.1262 0.936425 -3.43 6.093e-013 3.19744e-014 0.608488 -35.3744 -0.124447 7.10543e-015 -18.47 5.32907e-015 -0.911752 51.9786 4.62828 3.55271e-015 -17.95 0 16.2167 19.9779 -2.86899 -3.55271e-015 4.57 7.99361e-015 1.45786 9.0638 0.53847 -3.55271e-015 6.57 8.88178e-016 2.88344 18.1382 0.856458 1.06 4.19 1.76 -27.575 -0.630287 8.95598 5.81 -4.6699e-012 4.44089e-015 70.6196 45.0628 -39.6961 5.59012e-013 -12.08 -1.21923e-012 168.117 -75.5216 163.437 -7.10543e-015 -9.82 0 22.8387 -5.10794 1.04675 -1.06 4.19 1.76 23.7871 2.04992 3.1313 -6.06 -4.87768e-012 8.88178e-016 -75.8327 65.8298 42.2593 1.74114e-013 -11.08 3.50015e-013 -150.814 -80.8127 -160.514 1.42109e-014 -9.82 -8.88178e-016 -15.052 -11.7011 -1.55022 3.55271e-015 4.05 4.44089e-016 -13.4559 -58.2642 -13.8755 -3.55271e-015 5.19 4.44089e-016 0.538073 12.4777 -7.91217 
27.7275 45.9218 -7.30756 -2.40299 3.1635 -19.2974 3.43 8.69419e-014 1.59872e-014 2.21036 -18.9437 0.722013 1.42109e-014 -18.47 -6.21725e-015 0.607024 31.318 -8.38123 -3.55271e-015 -17.95 -1.77636e-015 -9.81472 16.3219 1.44186 -3.43 5.76789e-013 3.19744e-014 1.3784 -24.3587 -0.0949548 7.10543e-015 -18.47 5.32907e-015 0.499039 37.5312 7.61262 3.55271e-015 -17.95 0 15.8362 19.7186 -2.7811 -3.55271e-015 4.57 7.99361e-015 1.24796 8.20155 0.552805 -3.55271e-015 6.57 8.88178e-016 2.45318 16.4129 0.937455 1.06 4.19 1.76 -28.9757 -0.810457 9.37944 5.81 -4.67103e-012 4.44089e-015 65.1787 45.9744 -26.9773 5.97833e-013 -12.08 -1.32393e-012 166.636 -75.0054 165.338 -7.10543e-015 -9.82 0 24.1689 -3.14947 0.663877 -1.06 4.19 1.76 24.7505 2.02713 2.75139 -6.06 -4.87631e-012 8.88178e-016 -66.7883 67.7705 32.5247 1.74126e-013 -11.08 3.07929e-013 -142.62 -82.2529 -153.497 1.42109e-014 -9.82 -8.88178e-016 -14.7762 -10.7132 -1.39261 3.55271e-015 4.05 4.44089e-016 -11.725 -55.1256 -12.7334 -3.55271e-015 5.19 4.44089e-016 1.45661 12.8181 -8.2593 
27.0757 43.1032 -6.72835 -2.93591 2.20208 -18.0276 3.43 7.10172e-014 1.59872e-014 2.1849 -12.7088 -0.769982 1.42109e-014 -18.47 -6.21725e-015 3.44277 24.5717 -8.01762 -3.55271e-015 -17.95 -1.77636e-015 -14.6624 24.6151 3.48795 -3.43 5.41076e-013 3.19744e-014 2.31333 -14.3437 -0.32676 7.10543e-015 -18.47 5.32907e-015 -0.192795 26.3747 5.53684 3.55271e-015 -17.95 0 19.8416 26.2191 -5.08243 -3.55271e-015 4.57 7.99361e-015 0.850221 7.60328 0.53615 -3.55271e-015 6.57 8.88178e-016 1.651 15.214 0.969786 1.06 4.19 1.76 -31.399 -1.14964 10.148 5.81 -4.67206e-012 4.44089e-015 67.1992 24.325 -21.2671 6.25637e-013 -12.08 -1.41818e-012 158.792 -78.5293 152.229 -7.10543e-015 -9.82 0 18.4481 -6.51333 1.06789 -1.06 4.19 1.76 30.0646 2.25643 2.43114 -6.06 -4.87447e-012 8.88178e-016 -64.3182 56.0521 22.8326 1.63186e-013 -11.08 2.65248e-013 -143.048 -81.3102 -152.56 1.42109e-014 -9.82 -8.88178e-016 -12.8377 -11.0387 -1.24556 3.55271e-015 4.05 4.44089e-016 -9.1741 -50.8974 -11.9394 -3.55271e-015 5.19 4.44089e-016 1.56194 12.3496 -8.78225 
